Coordinates
version=1
nRows=65
nColumns=12
inDegrees=yes

Units are S.I. units (second, meters, Newtons, ...)
Angles are in degrees

endheader
time	SC_y	SC_z	SC_x	AC_y	AC_z	AC_x	GH_y	GH_z	GH_yy	EL_x	PS_y
       0.0              -13.56          23.64          50.52          51.99          -13.2         -13.65         -96.28          58.68        -0.3317          123.9          71.79
   0.04562              -13.56          23.64          50.52          51.99          -13.2         -13.65         -96.28          58.68        -0.3271          123.9          71.79
   0.09124              -13.56          23.64          50.53          51.99          -13.2         -13.64         -96.29          58.67        -0.3222          123.9          71.79
    0.1369              -13.56          23.64          50.53          51.99         -13.19         -13.64         -96.29          58.66        -0.3169          123.9          71.78
    0.1825              -13.56          23.64          50.54          51.99         -13.19         -13.64         -96.29          58.66        -0.3113          123.9          71.78
    0.2281              -13.56          23.65          50.54          51.99         -13.19         -13.63         -96.29          58.65        -0.3054          123.9          71.77
    0.2737              -13.56          23.65          50.55          51.99         -13.18         -13.63         -96.29          58.64         -0.299          123.9          71.77
    0.3193              -13.56          23.65          50.56          51.98         -13.18         -13.62          -96.3          58.64        -0.2922          123.9          71.76
     0.365              -13.56          23.65          50.56          51.98         -13.17         -13.62          -96.3          58.63         -0.285          123.9          71.76
    0.4106              -13.56          23.65          50.57          51.98         -13.17         -13.61          -96.3          58.62        -0.2771          123.9          71.75
    0.4562              -13.56          23.66          50.58          51.98         -13.17         -13.61          -96.3          58.61        -0.2688          123.9          71.75
    0.5018              -13.56          23.66          50.59          51.98         -13.16          -13.6         -96.31           58.6        -0.2597          123.9          71.74
    0.5474              -13.56          23.66          50.59          51.98         -13.16          -13.6         -96.31          58.59          -0.25          123.9          71.73
    0.5931              -13.56          23.66           50.6          51.97         -13.15         -13.59         -96.31          58.58        -0.2395          123.9          71.72
    0.6387              -13.56          23.67          50.61          51.97         -13.14         -13.58         -96.32          58.57        -0.2281          123.9          71.72
    0.6843              -13.56          23.67          50.63          51.97         -13.14         -13.58         -96.32          58.55        -0.2158          123.9          71.71
    0.7299              -13.56          23.67          50.64          51.97         -13.13         -13.57         -96.33          58.54        -0.2024          123.9           71.7
    0.7755              -13.56          23.68          50.65          51.96         -13.12         -13.56         -96.33          58.52        -0.1878          123.9          71.69
    0.8211              -13.56          23.68          50.67          51.96         -13.11         -13.55         -96.34          58.51        -0.1719          123.9          71.67
    0.8668              -13.56          23.68          50.68          51.96          -13.1         -13.54         -96.34          58.49        -0.1544          123.9          71.66
    0.9124              -13.56          23.69           50.7          51.95         -13.09         -13.52         -96.35          58.47        -0.1353          123.9          71.65
     0.958              -13.56           23.7          50.72          51.95         -13.08         -13.51         -96.36          58.44        -0.1142          123.9          71.63
     1.004              -13.56           23.7          50.74          51.95         -13.07          -13.5         -96.37          58.42       -0.09088          123.9          71.61
     1.049              -13.56          23.71          50.76          51.94         -13.05         -13.48         -96.37          58.39       -0.06507          123.9          71.59
     1.095              -13.57          23.72          50.79          51.94         -13.04         -13.46         -96.38          58.36       -0.03638          123.8          71.57
      1.14              -13.57          23.72          50.82          51.93         -13.02         -13.44          -96.4          58.33      -0.004365          123.8          71.55
     1.186              -13.57          23.73          50.85          51.92          -13.0         -13.42         -96.41          58.29         0.0315          123.8          71.52
     1.232              -13.57          23.74          50.89          51.92         -12.98         -13.39         -96.42          58.24        0.07184          123.8          71.49
     1.277              -13.57          23.75          50.93          51.91         -12.95         -13.36         -96.44          58.19         0.1174          123.8          71.46
     1.323              -13.57          23.77          50.98           51.9         -12.93         -13.33         -96.45          58.14         0.1692          123.8          71.42
     1.369              -13.57          23.78          51.03          51.89         -12.89         -13.29         -96.48          58.07         0.2283          123.8          71.38
     1.414              -13.57           23.8          51.09          51.87         -12.86         -13.25          -96.5           58.0         0.2961          123.7          71.33
      1.46              -13.57          23.82          51.16          51.86         -12.81          -13.2         -96.53          57.91         0.3743          123.7          71.27
     1.505              -13.58          23.84          51.25          51.84         -12.76         -13.14         -96.56          57.82         0.4653          123.7           71.2
     1.551              -13.58          23.87          51.34          51.82          -12.7         -13.08         -96.59           57.7         0.5717          123.7          71.12
     1.597              -13.58           23.9          51.46           51.8         -12.64          -13.0         -96.64          57.56         0.6972          123.6          71.03
     1.642              -13.58          23.94          51.59          51.77         -12.55          -12.9         -96.69           57.4         0.8463          123.6          70.92
     1.688              -13.59          23.99          51.76          51.73         -12.46         -12.79         -96.75          57.21          1.025          123.5          70.79
     1.734              -13.59          24.04          51.95          51.69         -12.34         -12.65         -96.83          56.98          1.241          123.5          70.63
     1.779               -13.6          24.11          52.19          51.64         -12.19         -12.49         -96.92          56.69          1.505          123.4          70.43
     1.825               -13.6          24.19          52.49          51.58         -12.01         -12.28         -97.03          56.34          1.831          123.3          70.19
      1.87              -13.61           24.3          52.86           51.5         -11.79         -12.02         -97.17          55.89          2.238          123.2          69.89
     1.916              -13.62          24.43          53.33           51.4         -11.51          -11.7         -97.35          55.34           2.75          123.0          69.51
     1.962              -13.63          24.59          53.92          51.28         -11.15         -11.29         -97.57          54.63          3.401          122.8          69.02
     2.007              -13.65          24.81          54.68          51.12         -10.69         -10.76         -97.86          53.73          4.234          122.6          68.41
     2.053              -13.67          25.08          55.65          50.91         -10.11         -10.09         -98.23          52.57          5.303          122.3          67.61
     2.098               -13.7          25.43          56.89          50.65         -9.358         -9.222          -98.7          51.09          6.669          121.9           66.6
     2.144              -13.74          25.87          58.46          50.32         -8.415         -8.136         -99.29          49.23          8.386          121.4          65.33
      2.19              -13.78           26.4          60.36          49.92         -7.266         -6.812         -100.0          46.96          10.48          120.8          63.78
     2.235              -13.83          27.02          62.57          49.46         -5.934         -5.278         -100.9          44.33           12.9          120.0          61.98
     2.281              -13.88           27.7          64.96          48.96         -4.492         -3.617         -101.8          41.48          15.53          119.3          60.03
     2.327              -13.93          28.37          67.35          48.45          -3.05         -1.956         -102.7          38.64          18.16          118.5          58.08
     2.372              -13.98          28.99          69.56          47.99         -1.719        -0.4225         -103.5          36.01          20.58          117.8          56.29
     2.418              -14.02          29.52          71.47          47.59          -0.57         0.9009         -104.2          33.74          22.68          117.2          54.73
     2.463              -14.06          29.96          73.03          47.26         0.3727          1.987         -104.8          31.88          24.39          116.7          53.46
     2.509              -14.09          30.31          74.27           47.0          1.123          2.851         -105.3           30.4          25.76          116.3          52.45
     2.555              -14.11          30.58          75.25           46.8          1.709          3.527         -105.7          29.24          26.83          116.0          51.66
       2.6              -14.13           30.8           76.0          46.64          2.167          4.054         -106.0          28.33          27.66          115.7          51.04
     2.646              -14.14          30.96           76.6          46.51          2.524          4.465         -106.2          27.63          28.31          115.5          50.55
     2.692              -14.15          31.09          77.06          46.41          2.805          4.789         -106.4          27.07          28.82          115.4          50.18
     2.737              -14.16           31.2          77.43          46.34          3.028          5.046         -106.5          26.63          29.23          115.2          49.87
     2.783              -14.16          31.28          77.73          46.27          3.207          5.252         -106.6          26.28          29.56          115.2          49.63
     2.828              -14.17          31.35          77.97          46.22          3.352          5.419         -106.7          25.99          29.82          115.1          49.44
     2.874              -14.17           31.4          78.17          46.18          3.471          5.556         -106.8          25.76          30.04          115.0          49.28
      2.92              -14.18          31.45          78.33          46.15          3.569          5.669         -106.8          25.56          30.22          115.0          49.14
